<?xml version="1.0" encoding="UTF-8"?><svg id="Ebene_1" xmlns="http://www.w3.org/2000/svg" viewBox="0 0 796.72 827.62"><defs><style>.cls-1{fill:#fff;stroke:#000;stroke-miterlimit:10;stroke-width:10px;}</style></defs><path d="m318.76,2.78c4.12,4.91.6,14.71-7.83,21.78L24.53,264.88c-8.43,7.07-18.69,8.84-22.81,3.93s-.6-14.71,7.83-21.78L295.95,6.71c8.43-7.07,18.69-8.84,22.81-3.93Z"/><path d="m303.88,2.78c-4.12,4.91-.6,14.71,7.83,21.78l286.4,240.31c8.43,7.07,18.69,8.84,22.81,3.93s.6-14.71-7.83-21.78L326.69,6.71c-8.43-7.07-18.69-8.84-22.81-3.93Z"/><path d="m303.83,62.65c-4.12,4.91-.6,14.71,7.83,21.78l212.39,178.22c8.43,7.07,18.69,8.84,22.81,3.93s.6-14.71-7.83-21.78l-212.39-178.22c-8.43-7.07-18.69-8.84-22.81-3.93Z"/><path d="m318.81,62.65c4.12,4.91.6,14.71-7.83,21.78l-214.02,179.58c-8.43,7.07-18.69,8.84-22.81,3.93s-.6-14.71,7.83-21.78l214.02-179.58c8.43-7.07,18.69-8.84,22.81-3.93Z"/><path d="m264.42,557.6c0,6.41-9,11.65-20,11.65H91.9c-11,0-20-5.24-20-11.65s9-11.65,20-11.65h152.52c11,0,20,5.24,20,11.65Z"/><path d="m83.55,249.99c6.41,0,11.65,9,11.65,20v278.56c0,11-5.24,20-11.65,20-6.41,0-11.65-9-11.65-20v-278.56c0-11,5.24-20,11.65-20Z"/><path d="m539.57,249.99c6.41,0,11.65,9,11.65,20v277.85c0,11-5.24,20-11.65,20s-11.65-9-11.65-20v-277.85c0-11,5.24-20,11.65-20Z"/><path d="m253.48,357.59c6.41,0,11.65,9,11.65,20v170.96c0,11-5.24,20-11.65,20-6.41,0-11.65-9-11.65-20v-170.96c0-11,5.24-20,11.65-20Z"/><path d="m369.39,357.59c6.41,0,11.65,9,11.65,20v170.96c0,11-5.24,20-11.65,20-6.41,0-11.65-9-11.65-20v-170.96c0-11,5.24-20,11.65-20Z"/><path d="m381.04,369.24c0,6.41-9,11.65-20,11.65h-99.22c-11,0-20-5.24-20-11.65s9-11.65,20-11.65h99.22c11,0,20,5.24,20,11.65Z"/><path d="m550.98,556.89c0,6.41-9,11.65-20,11.65h-152.54c-11,0-20-5.24-20-11.65s9-11.65,20-11.65h152.54c11,0,20,5.24,20,11.65Z"/><rect class="cls-1" x="425.35" y="299.9" width="366.37" height="522.73"/><rect class="cls-1" x="462.4" y="365.19" width="46.11" height="46.11"/><rect class="cls-1" x="462.4" y="449.25" width="46.11" height="46.11"/><rect class="cls-1" x="462.4" y="533.31" width="46.11" height="46.11"/><rect class="cls-1" x="462.4" y="617.37" width="46.11" height="46.11"/><rect class="cls-1" x="462.4" y="701.44" width="46.11" height="46.11"/></svg>