<?xml version="1.0" encoding="UTF-8"?><svg id="Ebene_1" xmlns="http://www.w3.org/2000/svg" viewBox="0 0 842.93 705.83"><path d="m840.12,137.75c-1.94,8.85-12.32,14.17-23.07,11.81L284.48,32.75c-10.74-2.36-17.95-11.53-16.01-20.38s12.32-14.17,23.07-11.81l532.57,116.81c10.74,2.36,17.95,11.53,16.01,20.38Z"/><path d="m827.27,121.09c-9.05-.37-16.84,8.31-17.29,19.3l-22.56,544.76c-.46,10.99,6.58,20.29,15.64,20.66s16.84-8.31,17.29-19.3l22.56-544.76c.46-10.99-6.58-20.29-15.64-20.66Z"/><path d="m760.18,172.72c-9.05-.37-16.84,8.31-17.29,19.3l-16.91,408.27c-.46,10.99,6.58,20.29,15.64,20.66s16.84-8.31,17.29-19.3l16.91-408.27c.46-10.99-6.58-20.29-15.64-20.66Z"/><path d="m773.11,189.5c-1.94,8.85-12.32,14.17-23.07,11.81l-402.06-88.19c-10.74-2.36-17.95-11.53-16.01-20.38s12.32-14.17,23.07-11.81l402.06,88.19c10.74,2.36,17.95,11.53,16.01,20.38Z"/><path d="m171.85,555.9c-7.18,5.53-18.54,2.93-25.26-5.78L4.8,366.19c-6.72-8.71-6.34-20.37.84-25.9s18.54-2.93,25.26,5.78l141.79,183.93c6.72,8.71,6.34,20.37-.84,25.9Z"/><path d="m360.2,87.76c5.53,7.18,2.93,18.54-5.78,25.26L29.34,363.63c-8.71,6.72-20.37,6.34-25.9-.84-5.53-7.18-2.93-18.54,5.78-25.26L334.3,86.92c8.71-6.72,20.37-6.34,25.9.84Z"/><path d="m753.9,598.46c5.53,7.18,2.93,18.54-5.78,25.26l-79.43,61.23c-8.71,6.72-20.37,6.34-25.9-.84-5.53-7.18-2.93-18.54,5.78-25.26l79.43-61.23c8.71-6.72,20.37-6.34,25.9.84Z"/><path d="m386.4,370.96c5.53,7.18,2.93,18.54-5.78,25.26l-204.57,157.71c-8.71,6.72-20.37,6.34-25.9-.84s-2.93-18.54,5.78-25.26l204.57-157.71c8.71-6.72,20.37-6.34,25.9.84Z"/><path d="m486.47,500.78c5.53,7.18,2.93,18.54-5.78,25.26l-204.57,157.71c-8.71,6.72-20.37,6.34-25.9-.84s-2.93-18.54,5.78-25.26l204.57-157.71c8.71-6.72,20.37-6.34,25.9.84Z"/><path d="m483.48,523.89c-7.18,5.53-18.54,2.93-25.26-5.78l-95.77-124.23c-6.72-8.71-6.34-20.37.84-25.9s18.54-2.93,25.26,5.78l95.77,124.23c6.72,8.71,6.34,20.37-.84,25.9Z"/><path d="m672.35,674.08c0,9.06-9,16.48-20,16.48h-382.69c-11,0-20-7.41-20-16.48s9-16.48,20-16.48h382.69c11,0,20,7.41,20,16.48Z"/></svg>