<?xml version="1.0" encoding="UTF-8"?><svg id="Ebene_1" xmlns="http://www.w3.org/2000/svg" viewBox="0 0 882.16 806.17"><path d="m451.6,5.14c5.83,6.94,3.7,18.41-4.73,25.48L29.2,381.08c-8.43,7.07-20.09,7.18-25.91.23s-3.7-18.41,4.73-25.48L425.68,5.37c8.43-7.07,20.09-7.18,25.91-.23Z"/><path d="m430.56,5.14c-5.83,6.94-3.7,18.41,4.73,25.48l417.67,350.47c8.43,7.07,20.09,7.18,25.91.23s3.7-18.41-4.73-25.48L456.47,5.37c-8.43-7.07-20.09-7.18-25.91-.23Z"/><path d="m430.49,89.8c-5.83,6.94-3.7,18.41,4.73,25.48l313.02,262.65c8.43,7.07,20.09,7.18,25.91.23s3.7-18.41-4.73-25.48L456.4,90.03c-8.43-7.07-20.09-7.18-25.91-.23Z"/><path d="m451.67,89.8c5.83,6.94,3.7,18.41-4.73,25.48L131.62,379.86c-8.43,7.07-20.09,7.18-25.91.23s-3.7-18.41,4.73-25.48L425.76,90.03c8.43-7.07,20.09-7.18,25.91-.23Z"/><path d="m780.3,789.69c0,9.06-9,16.48-20,16.48H122.52c-11,0-20-7.41-20-16.48s9-16.48,20-16.48h637.78c11,0,20,7.41,20,16.48Z"/><path d="m119,354.71c9.06,0,16.48,9,16.48,20v410.46c0,11-7.41,20-16.48,20s-16.48-9-16.48-20v-410.46c0-11,7.41-20,16.48-20Z"/><path d="m763.83,354.71c9.06,0,16.48,9,16.48,20v409.46c0,11-7.41,20-16.48,20s-16.48-9-16.48-20v-409.46c0-11,7.41-20,16.48-20Z"/><path d="m558.25,698.77c0,9.06-9,16.48-20,16.48h-194.66c-11,0-20-7.41-20-16.48s9-16.48,20-16.48h194.66c11,0,20,7.41,20,16.48Z"/><path d="m558.25,419.8c0,7.09-9,12.89-20,12.89h-194.66c-11,0-20-5.8-20-12.89s9-12.89,20-12.89h194.66c11,0,20,5.8,20,12.89Z"/><path d="m335.06,408.49c7.09,0,12.89,9,12.89,20v264.58c0,11-5.8,20-12.89,20s-12.89-9-12.89-20v-264.58c0-11,5.8-20,12.89-20Z"/><path d="m545.36,406.32c7.09,0,12.89,9,12.89,20v264.58c0,11-5.8,20-12.89,20s-12.89-9-12.89-20v-264.58c0-11,5.8-20,12.89-20Z"/><path d="m510.3,348.66c0,7.09-9,12.89-20,12.89h-91.91c-11,0-20-5.8-20-12.89s9-12.89,20-12.89h91.91c11,0,20,5.8,20,12.89Z"/><path d="m498.82,336.18c7.09,0,12.89,9,12.89,20v56.5c0,11-5.8,20-12.89,20s-12.89-9-12.89-20v-56.5c0-11,5.8-20,12.89-20Z"/><path d="m389.87,336.18c7.09,0,12.89,9,12.89,20v56.5c0,11-5.8,20-12.89,20-7.09,0-12.89-9-12.89-20v-56.5c0-11,5.8-20,12.89-20Z"/><path d="m558.25,513.23c0,7.09-9,12.89-20,12.89h-194.66c-11,0-20-5.8-20-12.89s9-12.89,20-12.89h194.66c11,0,20,5.8,20,12.89Z"/><path d="m558.25,603.67c0,7.09-9,12.89-20,12.89h-194.66c-11,0-20-5.8-20-12.89s9-12.89,20-12.89h194.66c11,0,20,5.8,20,12.89Z"/></svg>