<?xml version="1.0" encoding="UTF-8"?><svg id="Ebene_1" xmlns="http://www.w3.org/2000/svg" viewBox="0 0 784.46 716.12"><defs><style>.cls-1{fill:#fff;}.cls-2{fill:none;stroke:#000;stroke-miterlimit:10;stroke-width:10px;}</style></defs><path d="m401.59,4.2c5.18,6.18,2.53,17.02-5.9,24.09L27.4,337.32c-8.43,7.07-19.56,7.8-24.75,1.62s-2.53-17.02,5.9-24.09L376.85,5.82c8.43-7.07,19.56-7.8,24.75-1.62Z"/><path d="m382.87,4.2c-5.18,6.18-2.53,17.02,5.9,24.09l368.3,309.04c8.43,7.07,19.56,7.8,24.75,1.62s2.53-17.02-5.9-24.09L407.62,5.82c-8.43-7.07-19.56-7.8-24.75-1.62Z"/><path d="m382.81,79.53c-5.18,6.18-2.53,17.02,5.9,24.09l275.17,230.9c8.43,7.07,19.56,7.8,24.75,1.62s2.53-17.02-5.9-24.09L407.55,81.16c-8.43-7.07-19.56-7.8-24.75-1.62Z"/><path d="m401.66,79.53c5.18,6.18,2.53,17.02-5.9,24.09L118.54,336.24c-8.43,7.07-19.56,7.8-24.75,1.62s-2.53-17.02,5.9-24.09L376.91,81.16c8.43-7.07,19.56-7.8,24.75-1.62Z"/><path d="m105.62,315.27c8.06,0,14.66,9,14.66,20v360.86c0,11-6.6,20-14.66,20s-14.66-9-14.66-20v-360.86c0-11,6.6-20,14.66-20Z"/><path d="m679.44,315.27c8.06,0,14.66,9,14.66,20v359.97c0,11-6.6,20-14.66,20s-14.66-9-14.66-20v-359.97c0-11,6.6-20,14.66-20Z"/><path d="m479.97,465.33c0,8.06-9,14.66-20,14.66h-135.18c-11,0-20-6.6-20-14.66s9-14.66,20-14.66h135.18c11,0,20,6.6,20,14.66Z"/><path d="m693.8,701.46c0,8.06-9,14.66-20,14.66H110.96c-11,0-20-6.6-20-14.66s9-14.66,20-14.66h562.85c11,0,20,6.6,20,14.66Z"/><rect x="159.89" y="312.07" width="279.06" height="184.29" rx="20" ry="20"/><path d="m246.47,500.72c7.78-7.78,5.14-14.14-5.86-14.14h-32.64c-11,0-20,9-20,20v32.64c0,11,6.36,13.64,14.14,5.86l44.35-44.35Z"/><path class="cls-1" d="m418.72,348.93c0,2.05-4.5,3.73-10,3.73h-218.59c-5.5,0-10-1.68-10-3.73s4.5-3.73,10-3.73h218.59c5.5,0,10,1.68,10,3.73Z"/><path class="cls-1" d="m418.72,384.27c0,2.05-4.5,3.73-10,3.73h-218.59c-5.5,0-10-1.68-10-3.73s4.5-3.73,10-3.73h218.59c5.5,0,10,1.68,10,3.73Z"/><path class="cls-1" d="m418.72,419.3c0,2.05-4.5,3.73-10,3.73h-218.59c-5.5,0-10-1.68-10-3.73s4.5-3.73,10-3.73h218.59c5.5,0,10,1.68,10,3.73Z"/><path class="cls-1" d="m294.6,454.33c0,2.05-4.5,3.73-10,3.73h-94.47c-5.5,0-10-1.68-10-3.73s4.5-3.73,10-3.73h94.47c5.5,0,10,1.68,10,3.73Z"/><path class="cls-1" d="m533.3,601.01c-7.78-7.78-5.14-14.14,5.86-14.14h36.03c11,0,20,9,20,20v36.03c0,11-6.36,13.64-14.14,5.86l-47.74-47.74Z"/><path class="cls-2" d="m533.3,601.01c-7.78-7.78-5.14-14.14,5.86-14.14h36.03c11,0,20,9,20,20v36.03c0,11-6.36,13.64-14.14,5.86l-47.74-47.74Z"/><rect class="cls-1" x="332.49" y="404.21" width="292.09" height="192.89" rx="20" ry="20"/><rect class="cls-2" x="332.49" y="404.21" width="292.09" height="192.89" rx="20" ry="20"/><path d="m353.67,442.79c0,2.15,4.5,3.9,10,3.9h229.73c5.5,0,10-1.76,10-3.9s-4.5-3.9-10-3.9h-229.73c-5.5,0-10,1.76-10,3.9Z"/><path d="m353.67,479.79c0,2.15,4.5,3.9,10,3.9h229.73c5.5,0,10-1.76,10-3.9s-4.5-3.9-10-3.9h-229.73c-5.5,0-10,1.76-10,3.9Z"/><path d="m353.67,516.45c0,2.15,4.5,3.9,10,3.9h229.73c5.5,0,10-1.76,10-3.9s-4.5-3.9-10-3.9h-229.73c-5.5,0-10,1.76-10,3.9Z"/><path d="m473.43,553.11c0,2.15-4.5,3.9-10,3.9h-99.81c-5.5,0-10-1.76-10-3.9s4.5-3.9,10-3.9h99.81c5.5,0,10,1.76,10,3.9Z"/></svg>