<?xml version="1.0" encoding="UTF-8"?><svg id="Ebene_1" xmlns="http://www.w3.org/2000/svg" viewBox="0 0 882.16 806.17"><defs><style>.cls-1,.cls-2{fill:#fff;}.cls-2{font-family:ArialMT, Arial;font-size:249.49px;}</style></defs><path d="m451.6,5.14c5.83,6.94,3.7,18.41-4.73,25.48L29.2,381.08c-8.43,7.07-20.09,7.18-25.91.23-5.83-6.94-3.7-18.41,4.73-25.48L425.68,5.37c8.43-7.07,20.09-7.18,25.91-.23Z"/><path d="m430.56,5.14c-5.83,6.94-3.7,18.41,4.73,25.48l417.67,350.47c8.43,7.07,20.09,7.18,25.91.23,5.83-6.94,3.7-18.41-4.73-25.48L456.47,5.37c-8.43-7.07-20.09-7.18-25.91-.23Z"/><path d="m430.49,89.8c-5.83,6.94-3.7,18.41,4.73,25.48l313.02,262.65c8.43,7.07,20.09,7.18,25.91.23s3.7-18.41-4.73-25.48L456.4,90.03c-8.43-7.07-20.09-7.18-25.91-.23Z"/><path d="m451.67,89.8c5.83,6.94,3.7,18.41-4.73,25.48L131.62,379.86c-8.43,7.07-20.09,7.18-25.91.23s-3.7-18.41,4.73-25.48L425.76,90.03c8.43-7.07,20.09-7.18,25.91-.23Z"/><path d="m374.76,789.69c0,9.06-9,16.48-20,16.48H122.52c-11,0-20-7.41-20-16.48s9-16.48,20-16.48h232.24c11,0,20,7.41,20,16.48Z"/><path d="m119,354.71c9.06,0,16.48,9,16.48,20v410.46c0,11-7.41,20-16.48,20s-16.48-9-16.48-20v-410.46c0-11,7.41-20,16.48-20Z"/><path d="m763.83,354.71c9.06,0,16.48,9,16.48,20v409.46c0,11-7.41,20-16.48,20s-16.48-9-16.48-20v-409.46c0-11,7.41-20,16.48-20Z"/><path d="m359.28,506.86c9.06,0,16.48,9,16.48,20v258.3c0,11-7.41,20-16.48,20s-16.48-9-16.48-20v-258.3c0-11,7.41-20,16.48-20Z"/><path d="m523.19,506.86c9.06,0,16.48,9,16.48,20v258.3c0,11-7.41,20-16.48,20-9.06,0-16.48-9-16.48-20v-258.3c0-11,7.41-20,16.48-20Z"/><path d="m539.67,523.34c0,9.06-9,16.48-20,16.48h-156.86c-11,0-20-7.41-20-16.48s9-16.48,20-16.48h156.86c11,0,20,7.41,20,16.48Z"/><path d="m779.97,788.69c0,9.06-9,16.48-20,16.48h-232.26c-11,0-20-7.41-20-16.48s9-16.48,20-16.48h232.26c11,0,20,7.41,20,16.48Z"/><circle class="cls-1" cx="625.86" cy="224.49" r="161.81"/><circle cx="625.86" cy="224.49" r="143.49"/><text class="cls-2" transform="translate(544.44 308.56)"><tspan x="0" y="0">€</tspan></text></svg>