<?xml version="1.0" encoding="UTF-8"?><svg id="Ebene_1" xmlns="http://www.w3.org/2000/svg" viewBox="0 0 910.22 910.22"><defs><style>.cls-1{fill:#fff;}</style></defs><path d="m311.75,809.11l-25.08-15.36,5.03-7.86c5.52-3.09,23.22-20.26,32.99-44.15,9.77-23.89,12.05-47.15,5.61-54.73l8.4-20.56,28.75,11.75-55.71,130.92Z"/><path d="m310.1,804.33l28.66,6.6,1.92-9.14c-1.77-6.07-2.38-30.73,7.39-54.62,9.77-23.89,24.42-42.09,34.33-42.99l8.4-20.56-28.75-11.75-51.95,132.46Z"/><path d="m105.16,307.89l16.57-24.29,7.61,5.41c2.82,5.66,19.1,24.18,42.49,35.11,23.39,10.92,46.5,14.34,54.39,8.28l20.12,9.4-13.14,28.14-128.04-62.04Z"/><path d="m109.01,305.47l-7.99,28.3,9.03,2.36c6.15-1.47,30.8-.88,54.19,10.05,23.39,10.92,40.84,26.45,41.26,36.39l20.12,9.4,13.14-28.14-129.76-58.36Z"/><path d="m610.38,110.83l24.5,16.27-5.32,7.67c-5.62,2.89-23.94,19.4-34.58,42.92-10.63,23.52-13.76,46.67-7.61,54.49l-9.15,20.24-28.3-12.79,60.45-128.8Z"/><path d="m611.85,115.66l-28.4-7.64-2.25,9.06c1.55,6.13,1.26,30.79-9.38,54.31-10.63,23.52-25.94,41.17-35.88,41.71l-9.15,20.24,28.3,12.79,56.75-130.47Z"/><circle cx="454.72" cy="456.02" r="276.89"/><circle class="cls-1" cx="373.13" cy="374.44" r="35.18"/><circle class="cls-1" cx="430.35" cy="566.06" r="52.12"/><circle class="cls-1" cx="505.45" cy="439.45" r="44.11"/><circle class="cls-1" cx="492.94" cy="324.97" r="22.05"/><circle class="cls-1" cx="334.12" cy="478.08" r="22.05"/><circle class="cls-1" cx="549.12" cy="546.35" r="29.64"/><circle class="cls-1" cx="420.04" cy="273.28" r="29.64"/><circle class="cls-1" cx="297.66" cy="575.98" r="29.64"/><circle class="cls-1" cx="563.07" cy="273.28" r="35.18"/><circle class="cls-1" cx="253.55" cy="409.62" r="44.11"/><circle class="cls-1" cx="631.27" cy="395.93" r="29.64"/><circle class="cls-1" cx="651.94" cy="500.13" r="35.18"/><circle class="cls-1" cx="312.06" cy="302.92" r="29.64"/><circle class="cls-1" cx="527.89" cy="644.31" r="35.18"/><circle class="cls-1" cx="400.71" cy="673.95" r="29.64"/><circle class="cls-1" cx="631.27" cy="596.76" r="22.05"/><circle cx="873.53" cy="456.02" r="36.68"/><circle cx="36.68" cy="456.02" r="36.68"/><circle cx="454.72" cy="36.68" r="36.68"/><circle cx="454.72" cy="873.54" r="36.68"/><circle cx="754.89" cy="161.1" r="36.68"/><circle cx="154.37" cy="748.24" r="36.68"/><circle cx="768.29" cy="738.28" r="36.68"/><circle cx="165.76" cy="152.45" r="36.68"/><circle cx="609.22" cy="115.77" r="28.44"/><circle cx="804.97" cy="308.47" r="28.44"/><circle cx="801.97" cy="596.76" r="28.44"/><circle cx="616.48" cy="796.28" r="28.44"/><circle cx="313.27" cy="803.4" r="28.44"/><circle cx="112.69" cy="605.13" r="28.44"/><circle cx="108.97" cy="308.47" r="28.44"/><circle cx="313.27" cy="108.65" r="28.44"/><path d="m165.76,152.45l-20.48,28.46,9.16,6.32c7.49.85,34.88,11.56,56.64,33.33s35.01,46.28,31.43,57.59l18.73,18.73,26.19-26.19-121.66-118.24Z"/><path d="m166.8,155.18l28.46-20.48,6.32,9.16c.85,7.49,11.56,34.88,33.33,56.64s46.28,35.01,57.59,31.43l18.73,18.73-26.19,26.19-118.24-121.66Z"/><path d="m455.21,37.2l-34.52,6.16,2.17,10.92c4.78,5.83,16.97,32.59,17.43,63.37.46,30.78-7.12,57.59-17.56,63.21l.39,26.48,37.03-.55-4.93-169.58Z"/><path d="m453.06,39.88l34.69,5.13-1.85,10.98c-4.61,5.97-16,33.08-15.55,63.86s8.82,57.35,19.43,62.66l.39,26.48-37.03.55-.09-169.65Z"/><path d="m454.64,874.04l-34.52-6.16,2.17-10.92c4.78-5.83,16.97-32.59,17.43-63.37.46-30.78-7.12-57.59-17.56-63.21l.39-26.48,37.03.55-4.93,169.58Z"/><path d="m452.49,869.36l34.69-5.13-1.85-10.98c-4.61-5.97-16-33.08-15.55-63.86.46-30.78,8.82-57.35,19.43-62.66l.39-26.48-37.03-.55-.09,169.65Z"/><path d="m873.05,456.01l-6.16,34.52-10.92-2.17c-5.83-4.78-32.59-16.97-63.37-17.43-30.78-.46-57.59,7.12-63.21,17.56l-26.48-.39.55-37.03,169.58,4.93Z"/><path d="m871.37,457.16l-5.13-34.69-10.98,1.85c-5.97,4.61-33.08,16-63.86,15.55s-57.35-8.82-62.66-19.43l-26.48-.39-.55,37.03,169.65.09Z"/><path d="m36.58,456.75l6.16,34.52,10.92-2.17c5.83-4.78,32.59-16.97,63.37-17.43,30.78-.46,57.59,7.12,63.21,17.56l26.48-.39-.55-37.03-169.58,4.93Z"/><path d="m38.26,456.9l5.13-34.69,10.98,1.85c5.97,4.61,33.08,16,63.86,15.55,30.78-.46,57.35-8.82,62.66-19.43l26.48-.39.55,37.03-169.65.09Z"/><path d="m753.87,164.61l-28.31-20.69-6.39,9.12c-.91,7.48-11.82,34.79-33.74,56.4-21.92,21.6-46.53,34.67-57.81,31l-18.86,18.59,25.99,26.38,119.13-120.79Z"/><path d="m751.13,161.64l20.27,28.61-9.21,6.25c-7.5.8-34.96,11.31-56.89,32.91-21.92,21.6-35.34,46.02-31.85,57.35l-18.86,18.59-25.99-26.38,122.53-117.34Z"/><path d="m767.51,736.73l-28.26,20.77-6.41-9.1c-.93-7.48-11.91-34.76-33.89-56.31-21.98-21.54-46.63-34.54-57.9-30.84l-18.91-18.54,25.92-26.45,119.46,120.47Z"/><path d="m761.5,736.4l20.19-28.67-9.23-6.23c-7.5-.78-35-11.21-56.98-32.75-21.98-21.54-35.47-45.92-32-57.27l-18.91-18.54-25.92,26.45,122.85,117.01Z"/><path d="m155.56,749.46l-19.59-29.09,9.35-6.03c7.51-.62,35.22-10.47,57.65-31.55,22.43-21.08,36.43-45.16,33.2-56.58l19.3-18.13,25.36,26.99-125.28,114.39Z"/><path d="m156.13,743.47l27.81,21.36,6.6-8.96c1.08-7.46,12.64-34.5,35.07-55.58,22.43-21.08,47.34-33.55,58.54-29.62l19.3-18.13-25.36-26.99-121.96,117.93Z"/><path d="m619.35,800.11l-27.9,9.3-2.78-8.91c1.19-6.21-.56-30.81-12.56-53.67-12-22.85-28.32-39.57-38.27-39.52l-10.32-19.66,27.5-14.44,64.33,126.9Z"/><path d="m614.64,798.3l23.5-17.68-5.76-7.35c-5.78-2.55-25.05-17.96-37.05-40.81-12-22.85-16.49-45.78-10.8-53.95l-10.32-19.66-27.5,14.44,67.93,125.01Z"/><path d="m806.15,597.16l-12.88,26.44-8.31-4.25c-3.6-5.19-22.4-21.17-47.12-28.59-24.72-7.43-48.09-7.46-55.02-.33l-21.27-6.39,8.93-29.74,135.67,42.87Z"/><path d="m802.56,599.26l3.82-29.16-9.28-1.03c-5.87,2.35-30.35,5.32-55.08-2.1s-44.24-20.27-46.09-30.04l-21.27-6.39-8.93,29.74,136.83,38.98Z"/><path d="m809.54,306.14l6.72,28.63-9.13,1.95c-6.07-1.75-30.73-2.26-54.59,7.61s-41.99,24.59-42.85,34.51l-20.52,8.49-11.87-28.7,132.24-52.48Z"/><path d="m807.31,310.67l-15.47-25.01-7.84,5.07c-3.07,5.53-20.17,23.3-44.02,33.17-23.85,9.86-47.1,12.24-54.71,5.83l-20.52,8.49,11.87,28.7,130.69-56.24Z"/><path d="m310.83,107.76l28.52-7.18,2.1,9.1c-1.65,6.1-1.76,30.77,8.49,54.46,10.25,23.69,25.27,41.59,35.19,42.29l8.82,20.38-28.51,12.33-54.61-131.38Z"/><path d="m314.89,106.69l-24.76,15.87,5.19,7.76c5.58,2.98,23.62,19.79,33.87,43.48,10.25,23.69,13,46.89,6.72,54.61l8.82,20.38,28.51-12.33-58.34-129.77Z"/><path d="m108.22,608.16l-6.4-28.7,9.15-1.85c6.05,1.82,30.71,2.6,54.67-7,23.96-9.6,42.26-24.12,43.23-34.02l20.62-8.26,11.55,28.83-132.82,51Z"/><path d="m111.5,602.65l15.19,25.18,7.9-4.98c3.13-5.49,20.43-23.08,44.39-32.67,23.96-9.6,47.23-11.72,54.77-5.22l20.62-8.26-11.55-28.83-131.31,54.78Z"/></svg>